<?xml version="1.0" standalone="no"?>
<!DOCTYPE svg PUBLIC "-//W3C//DTD SVG 20010904//EN"
 "http://www.w3.org/TR/2001/REC-SVG-20010904/DTD/svg10.dtd">
<svg version="1.0" xmlns="http://www.w3.org/2000/svg"
 width="136.000000pt" height="136.000000pt" viewBox="0 0 136.000000 136.000000"
 preserveAspectRatio="xMidYMid meet">
<metadata>
Created by potrace 1.14, written by Peter Selinger 2001-2017
</metadata>
<g transform="translate(0.000000,136.000000) scale(0.100000,-0.100000)"
fill="#000000" stroke="none">
<path d="M618 1076 c-44 -33 -62 -136 -32 -181 18 -28 55 -33 74 -10 10 12 10
24 0 61 -10 36 -10 53 -1 86 10 33 10 42 -1 49 -17 11 -20 11 -40 -5z"/>
<path d="M732 1082 c-21 -7 -59 -94 -56 -130 4 -46 29 -82 58 -82 37 0 47 20
35 65 -10 36 -9 69 4 122 6 22 -14 34 -41 25z"/>
<path d="M172 938 c-17 -5 -43 -23 -57 -40 -27 -32 -27 -34 -21 -129 7 -106 6
-111 -54 -126 -30 -8 -35 -13 -35 -38 0 -22 5 -31 20 -33 11 -2 33 -8 48 -14
l28 -11 -6 -97 c-8 -111 4 -148 55 -175 34 -17 130 -18 130 -1 -1 40 -13 56
-45 56 -54 0 -69 23 -60 94 17 134 9 158 -58 173 l-29 6 37 13 c21 7 42 17 48
23 13 13 14 55 3 136 -10 76 4 99 58 97 20 -1 36 2 37 6 0 4 3 19 5 33 4 25 1
27 -35 31 -22 2 -53 0 -69 -4z"/>
<path d="M1112 941 c-13 -3 -23 -9 -23 -13 1 -5 1 -19 1 -33 0 -23 4 -25 35
-23 57 4 83 -41 63 -107 -25 -81 -4 -137 56 -154 23 -7 25 -9 10 -10 -12 -1
-34 -11 -49 -23 -27 -21 -27 -24 -20 -87 14 -137 5 -161 -61 -161 -28 0 -32
-4 -36 -30 -4 -26 -1 -31 19 -36 40 -10 103 3 128 26 42 39 49 85 31 201 -8
52 3 67 57 78 27 6 32 11 32 35 0 23 -6 30 -38 41 -21 7 -41 16 -44 19 -8 8
-8 56 0 124 7 57 -7 106 -35 130 -20 16 -96 30 -126 23z"/>
<path d="M402 755 c-151 -66 -121 -289 44 -319 66 -12 154 37 180 100 18 42
10 117 -16 158 -39 64 -136 92 -208 61z m129 -58 c48 -32 67 -89 46 -139 -20
-46 -59 -72 -108 -71 -120 3 -158 151 -56 213 42 26 76 25 118 -3z"/>
<path d="M798 750 c-52 -28 -81 -73 -86 -136 -17 -202 272 -251 325 -54 39
140 -110 258 -239 190z m125 -44 c84 -35 93 -154 15 -201 -77 -45 -163 -5
-175 83 -7 50 16 94 59 115 41 20 59 21 101 3z"/>
</g>
</svg>
